<svg width="12" height="12" viewBox="0 0 12 12" fill="none" xmlns="http://www.w3.org/2000/svg">
<path fill-rule="evenodd" clip-rule="evenodd" d="M1.84615 2.49891C1.6659 2.31866 1.6659 2.0264 1.84617 1.84615V1.84615C2.02642 1.66592 2.31865 1.66593 2.4989 1.84617L10.1538 9.50114C10.3341 9.68138 10.3341 9.97359 10.1538 10.1538V10.1538C9.9736 10.3341 9.68137 10.3341 9.50113 10.1538L1.84615 2.49891Z" fill="#FF0000" stroke="#FF0000" stroke-width="1.5"/>
<path fill-rule="evenodd" clip-rule="evenodd" d="M9.50113 1.84617C9.68137 1.66593 9.9736 1.66593 10.1538 1.84618V1.84618C10.3341 2.02642 10.3341 2.31863 10.1538 2.49887L2.4989 10.1538C2.31865 10.3341 2.02642 10.3341 1.84617 10.1539V10.1539C1.6659 9.97361 1.6659 9.68135 1.84615 9.5011L9.50113 1.84617Z" fill="#FF0000" stroke="#FF0000" stroke-width="1.5"/>
</svg>
